<svg xmlns="http://www.w3.org/2000/svg" width="692" height="423.20000000000005" font-family="SauceCodePro Nerd Font, Source Code Pro, Courier, monospace" font-size="14">
<rect width="100%" height="100%" fill="#1e1e1e"/>
<g fill="#d4d4d4">
<text x="10" y="376.8">[</text>
<text x="18.4" y="376.8">F</text>
<text x="26.8" y="376.8">z</text>
<text x="35.2" y="376.8">f</text>
<text x="43.6" y="376.8">-</text>
<text x="52" y="376.8">l</text>
<text x="60.400000000000006" y="376.8">u</text>
<text x="68.80000000000001" y="376.8">a</text>
<text x="77.2" y="376.8">]</text>
<text x="94" y="376.8">|</text>
<text x="102.4" y="376.8">&lt;</text>
<text x="110.80000000000001" y="376.8">C</text>
<text x="119.2" y="376.8">-</text>
<text x="127.60000000000001" y="376.8">s</text>
<text x="136" y="376.8">p</text>
<text x="144.4" y="376.8">a</text>
<text x="152.8" y="376.8">c</text>
<text x="161.20000000000002" y="376.8">e</text>
<text x="169.6" y="376.8">&gt;</text>
<text x="186.4" y="376.8">b</text>
<text x="194.8" y="376.8">u</text>
<text x="203.20000000000002" y="376.8">f</text>
<text x="211.60000000000002" y="376.8">f</text>
<text x="220" y="376.8">e</text>
<text x="228.4" y="376.8">r</text>
<text x="236.8" y="376.8">s</text>
<text x="245.20000000000002" y="376.8">|</text>
<text x="253.60000000000002" y="376.8">&lt;</text>
<text x="262" y="376.8">C</text>
<text x="270.40000000000003" y="376.8">-</text>
<text x="278.8" y="376.8">p</text>
<text x="287.2" y="376.8">&gt;</text>
<text x="304" y="376.8">f</text>
<text x="312.40000000000003" y="376.8">i</text>
<text x="320.8" y="376.8">l</text>
<text x="329.2" y="376.8">e</text>
<text x="337.6" y="376.8">s</text>
<text x="346" y="376.8">|</text>
<text x="354.40000000000003" y="376.8">&lt;</text>
<text x="362.8" y="376.8">C</text>
<text x="371.2" y="376.8">-</text>
<text x="379.6" y="376.8">g</text>
<text x="388" y="376.8">&gt;</text>
<text x="404.8" y="376.8">g</text>
<text x="413.20000000000005" y="376.8">r</text>
<text x="421.6" y="376.8">e</text>
<text x="430" y="376.8">p</text>
<text x="438.40000000000003" y="376.8">|</text>
<text x="446.8" y="376.8">&lt;</text>
<text x="455.20000000000005" y="376.8">C</text>
<text x="463.6" y="376.8">-</text>
<text x="472" y="376.8">m</text>
<text x="480.40000000000003" y="376.8">&gt;</text>
<text x="497.20000000000005" y="376.8">l</text>
<text x="505.6" y="376.8">i</text>
<text x="514" y="376.8">v</text>
<text x="522.4" y="376.8">e</text>
<text x="539.2" y="376.8">g</text>
<text x="547.6" y="376.8">r</text>
<text x="556" y="376.8">e</text>
<text x="564.4" y="376.8">p</text>
<text x="572.8000000000001" y="376.8">|</text>
<text x="581.2" y="376.8">&lt;</text>
<text x="589.6" y="376.8">C</text>
<text x="598" y="376.8">-</text>
<text x="606.4" y="376.8">k</text>
<text x="614.8000000000001" y="376.8">&gt;</text>
<text x="631.6" y="376.8">b</text>
<text x="640" y="376.8">u</text>
<text x="648.4" y="376.8">i</text>
<text x="656.8000000000001" y="376.8">l</text>
<text x="665.2" y="376.8">t</text>
<text x="673.6" y="376.8">i</text>
<text x="10" y="393.6">n</text>
<text x="18.4" y="393.6">|</text>
<text x="26.8" y="393.6">&lt;</text>
<text x="35.2" y="393.6">F</text>
<text x="43.6" y="393.6">1</text>
<text x="52" y="393.6">&gt;</text>
<text x="68.80000000000001" y="393.6">h</text>
<text x="77.2" y="393.6">e</text>
<text x="85.60000000000001" y="393.6">l</text>
<text x="94" y="393.6">p</text>
<text x="102.4" y="393.6">|</text>
<text x="10" y="410.40000000000003">P</text>
<text x="18.4" y="410.40000000000003">r</text>
<text x="26.8" y="410.40000000000003">e</text>
<text x="35.2" y="410.40000000000003">s</text>
<text x="43.6" y="410.40000000000003">s</text>
<text x="60.400000000000006" y="410.40000000000003">E</text>
<text x="68.80000000000001" y="410.40000000000003">N</text>
<text x="77.2" y="410.40000000000003">T</text>
<text x="85.60000000000001" y="410.40000000000003">E</text>
<text x="94" y="410.40000000000003">R</text>
<text x="110.80000000000001" y="410.40000000000003">o</text>
<text x="119.2" y="410.40000000000003">r</text>
<text x="136" y="410.40000000000003">t</text>
<text x="144.4" y="410.40000000000003">y</text>
<text x="152.8" y="410.40000000000003">p</text>
<text x="161.20000000000002" y="410.40000000000003">e</text>
<text x="178" y="410.40000000000003">c</text>
<text x="186.4" y="410.40000000000003">o</text>
<text x="194.8" y="410.40000000000003">m</text>
<text x="203.20000000000002" y="410.40000000000003">m</text>
<text x="211.60000000000002" y="410.40000000000003">a</text>
<text x="220" y="410.40000000000003">n</text>
<text x="228.4" y="410.40000000000003">d</text>
<text x="245.20000000000002" y="410.40000000000003">t</text>
<text x="253.60000000000002" y="410.40000000000003">o</text>
<text x="270.40000000000003" y="410.40000000000003">c</text>
<text x="278.8" y="410.40000000000003">o</text>
<text x="287.2" y="410.40000000000003">n</text>
<text x="295.6" y="410.40000000000003">t</text>
<text x="304" y="410.40000000000003">i</text>
<text x="312.40000000000003" y="410.40000000000003">n</text>
<text x="320.8" y="410.40000000000003">u</text>
<text x="329.2" y="410.40000000000003">e</text>
</g>
</svg>